<?xml version="1.0" encoding="UTF-8"?>
<svg id="Layer_1" data-name="Layer 1" xmlns="http://www.w3.org/2000/svg" viewBox="0 0 252.9 252.9">
  <defs>
    <style>
      .cls-1 {
        fill: #0057e2;
      }

      .cls-1, .cls-2 {
        stroke-width: 0px;
      }

      .cls-2 {
        fill: #fff;
      }
    </style>
  </defs>
  <rect class="cls-2" x="55.72" y="55.57" width="141.75" height="141.75"/>
  <circle class="cls-1" cx="158.1" cy="94.8" r="9.93"/>
  <path class="cls-1" d="M126.45,0C56.61,0,0,56.61,0,126.45s56.61,126.45,126.45,126.45,126.45-56.62,126.45-126.45S196.28,0,126.45,0ZM176.94,130.53c-12.05,12.04-30.08,14.45-44.52,7.23l-12.62,12.62-13.47,1.99-1.99,13.45-13.45,1.99-1.99,13.47-5.64,5.64-18.6,1.32,1.31-18.6,49.16-49.16c-7.22-14.45-4.81-32.47,7.24-44.52,15.06-15.07,39.5-15.07,54.56,0,15.07,15.07,15.07,39.5,0,54.57Z"/>
</svg>