<?xml version="1.0" encoding="UTF-8"?>
<svg id="Layer_1" xmlns="http://www.w3.org/2000/svg" viewBox="0 0 176.87 143.65">
  <defs>
    <style>
      .cls-1 {
        fill: #fff;
      }

      .cls-2 {
        fill: #265787;
      }

      .cls-3 {
        fill: #ea7600;
      }
    </style>
  </defs>
  <path class="cls-1" d="M66.23,81.62c.64-11.47,6.25-21.61,14.75-28.77,8.32-7.04,19.48-11.35,31.74-11.35s23.37,4.3,31.68,11.35c8.5,7.16,14.08,17.3,14.75,28.77.64,11.78-4.1,22.76-12.38,30.89-8.5,8.25-20.52,13.47-34.05,13.47s-25.61-5.18-34.05-13.47c-8.32-8.13-13.05-19.06-12.38-30.83l-.06-.06Z"/>
  <g>
    <path class="cls-2" d="M91.66,80.21c.33-5.9,3.21-11.1,7.58-14.78,4.27-3.62,10.01-5.83,16.31-5.83s12.01,2.21,16.28,5.83c4.37,3.68,7.24,8.89,7.58,14.78.33,6.05-2.11,11.7-6.36,15.88-4.37,4.24-10.54,6.92-17.5,6.92s-13.16-2.66-17.5-6.92c-4.27-4.18-6.71-9.79-6.36-15.84l-.03-.03Z"/>
    <path class="cls-3" d="M54.23,92.69c.04,2.31.78,6.8,1.88,10.29,2.32,7.42,6.27,14.29,11.73,20.31,5.61,6.21,12.54,11.2,20.52,14.75,8.39,3.71,17.5,5.61,26.95,5.61,9.45-.01,18.56-1.95,26.95-5.71,7.98-3.59,14.91-8.58,20.52-14.82,5.49-6.08,9.42-12.94,11.73-20.37,1.17-3.74,1.91-7.55,2.21-11.35.29-3.74.17-7.52-.36-11.29-1.04-7.33-3.59-14.22-7.49-20.46-3.56-5.77-8.17-10.79-13.66-15.03h.01S100.01,2.19,100.01,2.19c-.05-.04-.09-.08-.14-.11-3.62-2.78-9.73-2.77-13.69.02-4.02,2.82-4.49,7.49-.9,10.42l-.02.02,23.05,18.75-70.18.07h-.09c-5.8,0-11.38,3.81-12.48,8.64-1.14,4.9,2.81,8.98,8.86,8.98v.02s35.55-.07,35.55-.07L6.33,97.58c-.08.06-.17.12-.24.18C.1,102.35-1.84,109.99,1.94,114.8c3.84,4.9,11.98,4.93,18.03.03l34.62-28.38s-.51,3.84-.46,6.11l.11.13ZM143.43,105.51c-7.14,7.27-17.16,11.42-27.95,11.42-10.82.02-20.84-4.05-27.98-11.32-3.49-3.56-6.05-7.61-7.64-11.95-1.55-4.27-2.15-8.8-1.75-13.35.38-4.46,1.71-8.73,3.84-12.57,2.08-3.77,4.96-7.21,8.48-10.11,6.96-5.65,15.78-8.73,25.02-8.73,9.26-.01,18.09,3.02,25.05,8.67,3.52,2.88,6.39,6.3,8.48,10.07,2.13,3.84,3.46,8.08,3.84,12.57.39,4.55-.21,9.08-1.76,13.35-1.58,4.37-4.15,8.42-7.64,11.98l.02-.03Z"/>
  </g>
</svg>