<?xml version="1.0" encoding="UTF-8"?>
<svg id="svg3476" xmlns="http://www.w3.org/2000/svg" viewBox="0 0 361.16 409.6">
  <defs>
    <style>
      .cls-1 {
        fill: #2965f1;
      }

      .cls-1, .cls-2, .cls-3, .cls-4 {
        stroke-width: 0px;
      }

      .cls-2 {
        fill: #ebebeb;
      }

      .cls-3 {
        fill: #264de4;
      }

      .cls-4 {
        fill: #fff;
      }
    </style>
  </defs>
  <g id="layer1">
    <g id="g3013">
      <polygon id="polygon2989" class="cls-3" points="361.16 0 328.26 368.6 180.36 409.6 32.87 368.65 0 0 361.16 0"/>
      <polygon id="polygon2991" class="cls-1" points="300.09 345.13 328.21 30.14 180.58 30.14 180.58 378.26 300.09 345.13"/>
      <polygon id="polygon2993" class="cls-2" points="75.35 166.87 79.4 212.09 180.58 212.09 180.58 166.87 75.35 166.87"/>
      <polygon id="polygon2995" class="cls-2" points="180.58 75.36 180.43 75.36 67.21 75.36 71.32 120.57 180.58 120.57 180.58 75.36"/>
      <polygon id="polygon2997" class="cls-2" points="180.58 331.34 180.58 284.3 180.38 284.35 130.03 270.75 126.81 234.69 102.34 234.69 81.42 234.69 87.76 305.69 180.37 331.4 180.58 331.34"/>
      <polygon id="polygon3005" class="cls-4" points="236.1 212.09 230.85 270.72 180.43 284.34 180.43 331.37 273.12 305.69 273.8 298.05 284.42 179.01 285.53 166.87 293.69 75.36 180.43 75.36 180.43 120.57 244.14 120.57 240.02 166.87 180.43 166.87 180.43 212.09 236.1 212.09"/>
    </g>
  </g>
</svg>