<?xml version="1.0" encoding="UTF-8"?>
<svg id="Layer_1" data-name="Layer 1" xmlns="http://www.w3.org/2000/svg" viewBox="0 0 727.49 1006.07">
  <defs>
    <style>
      .cls-1 {
        fill: #f79221;
      }

      .cls-1, .cls-2 {
        stroke-width: 0px;
      }

      .cls-2 {
        fill: #05799a;
      }
    </style>
  </defs>
  <path class="cls-1" d="M457.7,0c.22,10.28,3.2,20.65,3.91,31,1.4,20.42-2.01,42.24-10.2,61-28.12,64.39-90.36,108-142.71,151.57-22.63,18.83-44.63,38.8-62.37,62.43-7.08,9.43-14.86,19.89-19.07,31-5.24,13.81-8.89,28.2-9.52,43-2.39,56.79,37.04,105.62,78.96,139,10.9,8.68,22.37,16.3,33.91,24.05,5.8,3.9,12.01,9.01,19.09,9.95-2.61-5.6-7.67-9.41-11.71-14-9-10.2-18.14-20.16-26.4-31-30.54-40.05-54.15-98.39-33.29-147.91,15.37-36.47,48.7-64.42,77.41-90.26,43.43-39.09,90.96-78.79,114.25-134,5.93-14.04,9.01-28.9,11.34-43.83,2.2-14.12,2.09-28.87-.18-43-2.93-18.23-10.99-33.45-20.41-49h-3M399.7,581c8.47,3.61,18.86-7.62,25-12.75,20.06-16.77,39.61-38.59,44.54-65.25,4.82-26.08-8.85-47.75-21.45-69.43-17.6-30.29-35.78-61.51-25.1-97.57,12.16-41.08,47.46-72.48,81.02-96.85,10.48-7.61,21.61-15.06,33-21.22,4.87-2.64,13.1-5.4,15-10.93-8.76,1.29-17.1,5.38-25.17,8.87-9.3,4.01-18.63,7.71-27.87,11.92-10.66,4.85-21.3,9.93-31.53,15.64-46.22,25.81-95.29,66.27-103.63,121.57-1.35,8.95-2.7,17.83-1.67,27,2.71,24.1,14.9,45.99,27.95,66,14.32,21.96,30.25,45.65,29.9,73-.16,12.89-5.28,24.69-11.41,35.71-2.7,4.86-6.42,9.18-8.58,14.29Z"/>
  <path class="cls-2" d="M610.7,552c11.43,0,22.13-.56,33,3.62,6.07,2.33,11.99,5.53,17,9.71,25.28,21.06,24.99,53.73,12.04,81.67-13.93,30.05-41.18,51.43-68.04,69.33-10.39,6.92-21.47,14.84-33,19.67v2c5.68,2.6,11.3-.18,17-1.96,13.09-4.09,25.37-9.76,38-14.95,32.6-13.4,66.3-34.73,86.56-64.09,16.2-23.47,19.82-55.35,4.33-80-16.93-26.94-47.34-34.04-76.89-34-8.24.01-26.68-.03-30,9M584.7,615c-2.83-4.99-9.16-7.09-14-9.87-4.35-2.49-8.97-6.58-14-7.54-6.55-1.25-15.57,2.85-22,4.19-14.16,2.94-28.67,5.63-43,7.5-82.92,10.81-166.79,14.94-250,4-19.26-2.53-38.14-5.68-57-10.18-8.14-1.94-19.61-4.51-24.39-12.12-5.7-9.06,11.49-15.36,17.39-17.97,22.65-10.03,49.48-15.84,74-19.01-2.55-3.56-6.05-2.21-10-2.04-8.8.37-17.24,1.99-26,2.87-32.41,3.24-66.68,9.13-97,21.37-8.78,3.54-27.24,11.61-24.57,23.8,2.45,11.13,18.35,16.33,27.57,20,28.95,11.54,62.05,18.23,93,21.09,17.61,1.63,35.27,4.61,53,5.82,35.15,2.41,70.82,2.67,106,1.13,35.78-1.57,71.54-2.57,107-8.36,23.76-3.88,47.71-8.11,71-14.36,11.1-2.98,21.76-7.98,33-10.31M540.7,721v-2c-7.36-3.44-14.61-7.9-21.58-12.11-4.66-2.82-9.87-6.88-15.42-7.59-7.39-.95-16.78,3.62-24,5.19-16.66,3.61-34.07,6.15-51,8.22-28.45,3.49-57.33,4.29-86,4.29-20.26,0-40.86-.02-61-2.17-21.17-2.27-44.08-5.15-64-12.99-6.57-2.59-18.02-6.34-18.66-14.83-.55-7.32,7.67-10.53,10.66-16-19.85,3.74-41.28,6.77-59.29,16.48-7.55,4.07-17.46,11.67-12.54,21.52,4.56,9.13,16.01,13.81,24.82,17.57,23.09,9.85,47.49,13.08,71.91,17.68,22.7,4.28,45.99,5.77,69.09,6.78,26.27,1.15,51.71,1.85,78,.05,54.33-3.72,108.1-9.18,159-30.09M496.7,833v-2c-9.92-4.27-19.75-10.43-29-16.01-4.36-2.63-9.94-7.46-15-8.39-4.01-.73-9.02,1.76-13,2.48-11.15,2.02-22.73,4.9-34,5.82-37.76,3.1-75.19,3.77-113,1-14.48-1.06-31.7-4.38-45-10.2-4.38-1.92-11.5-5.35-12.34-10.72-.49-3.12,2.16-6.26,3.34-8.98-15.12.32-35.98,6.21-48,15.53-6.97,5.4-12.34,14.11-6.49,22.47,6.28,8.97,16.6,13.72,26.49,17.42,17.94,6.72,36.1,10.96,55,13.87,44.4,6.85,90.35,8.18,135,2.87,33.13-3.94,66.09-9.55,96-25.17M647.7,855c-5.23,12.11-15.94,19.78-27,26.19-23.8,13.8-50.77,18.68-77,25.39-13.11,3.35-26.68,4.57-40,6.74-36.83,6.02-73.76,8.08-111,9.71-51.82,2.27-103.4,2.67-155-3.76-13.65-1.69-27.51-2.52-41-5.4-31.57-6.73-65.04-9.21-94.91-22.59-10.1-4.53-24.23-9.18-28.86-20.29-4.13-9.92,4.69-19.44,11.77-25.2,17.75-14.42,38.35-18.65,59-26.8-3.5-3.66-7.4-2.36-12-1.59-9.02,1.51-18.03,3.18-27,4.99-29.49,5.94-61.85,15.29-87,32.27-12.98,8.77-23.7,23.16-13.87,38.33,8.48,13.09,26.79,19.62,40.87,24.37,32.98,11.12,66.49,18.51,101,22.92,40.31,5.14,80.41,9.84,121,12.62,8.3.57,16.68-.23,25,.13,53.1,2.32,106.17.41,159-4.87,36.78-3.68,74.02-7.69,110-16.65,22.82-5.67,46.03-11.64,67.04-22.44,7.47-3.84,14.73-7.39,20.96-13.17,10.38-9.63,17.62-25.08,5.91-36.85-2.13-2.14-4.06-3.26-6.91-4.06M699.7,903c-6.73,9.48-18.17,16.09-28,22-24.94,15-52.23,24.73-80,32.97-75.94,22.54-156.13,29.11-235,31.04-31.57.78-63.43,2.06-95-.1-31.73-2.17-63.39-4.31-95-8.19-8.04-.99-16.01-2.05-24-3.31-6.24-.99-10.91-2.97-17-.41v2c48.84,13.73,99.51,20.63,150,24.09,97,6.65,194.91,2.84,290-18.42,35.26-7.89,71.93-18.45,103-37.48,17.06-10.45,31.39-23.66,34-44.19h-3Z"/>
</svg>