<?xml version="1.0" encoding="UTF-8"?>
<svg id="Layer_1" xmlns="http://www.w3.org/2000/svg" viewBox="0 0 256 288.46">
  <defs>
    <style>
      .cls-1 {
        fill: #539e43;
      }
    </style>
  </defs>
  <path class="cls-1" d="M128,288.46c-3.98,0-7.69-1.06-11.13-2.92l-35.25-20.94c-5.3-2.92-2.65-3.98-1.06-4.51,7.16-2.39,8.48-2.92,15.9-7.16.8-.53,1.86-.27,2.65.27l27.03,16.17c1.06.53,2.39.53,3.18,0l105.74-61.22c1.06-.53,1.59-1.59,1.59-2.92v-122.17c0-1.33-.53-2.39-1.59-2.92l-105.74-60.95c-1.06-.53-2.39-.53-3.18,0L20.41,80.17c-1.06.53-1.59,1.86-1.59,2.92v122.17c0,1.06.53,2.39,1.59,2.92l28.89,16.7c15.64,7.95,25.44-1.33,25.44-10.6v-120.58c0-1.59,1.33-3.18,3.18-3.18h13.52c1.59,0,3.18,1.33,3.18,3.18v120.58c0,20.94-11.4,33.13-31.27,33.13-6.1,0-10.87,0-24.38-6.63l-27.83-15.9c-6.89-3.98-11.13-11.4-11.13-19.35v-122.17c0-7.95,4.24-15.37,11.13-19.35L116.87,2.78c6.63-3.71,15.64-3.71,22.26,0l105.74,61.22c6.89,3.98,11.13,11.4,11.13,19.35v122.17c0,7.95-4.24,15.37-11.13,19.35l-105.74,61.22c-3.45,1.59-7.42,2.39-11.13,2.39ZM160.6,204.46c-46.38,0-55.92-21.2-55.92-39.22,0-1.59,1.33-3.18,3.18-3.18h13.78c1.59,0,2.92,1.06,2.92,2.65,2.12,14.05,8.22,20.94,36.31,20.94,22.26,0,31.8-5.04,31.8-16.96,0-6.89-2.65-11.93-37.37-15.37-28.89-2.92-46.91-9.28-46.91-32.33,0-21.47,18.02-34.19,48.23-34.19,33.92,0,50.62,11.66,52.74,37.1,0,.8-.27,1.59-.8,2.39-.53.53-1.33,1.06-2.12,1.06h-13.78c-1.33,0-2.65-1.06-2.92-2.39-3.18-14.58-11.4-19.35-33.13-19.35-24.38,0-27.3,8.48-27.3,14.84,0,7.69,3.45,10.07,36.31,14.31,32.6,4.24,47.97,10.34,47.97,33.13-.27,23.32-19.35,36.57-53,36.57h0Z"/>
</svg>