<?xml version="1.0" encoding="UTF-8"?>
<svg id="Layer_1" data-name="Layer 1" xmlns="http://www.w3.org/2000/svg" viewBox="0 0 979.6 1205.93">
  <defs>
    <style>
      .cls-1 {
        fill: #03fcf4;
      }

      .cls-1, .cls-2, .cls-3 {
        stroke-width: 0px;
      }

      .cls-2 {
        fill: #000;
      }

      .cls-3 {
        fill: #ff15ee;
      }
    </style>
  </defs>
  <rect class="cls-2" y="12.51" width="979.6" height="979.6" rx="124.42" ry="124.42"/>
  <path class="cls-3" d="M286.7,219.8h-133l18.2-93.8h378l-18.2,93.8h-133l-71.4,361.2h-112l71.4-361.2Z"/>
  <path class="cls-1" d="M463.13,432.43h106.4l-36.4,235.2c-4.2,29.4-12.6,81.9-18.9,116.9h3.5c13.3-38.5,28.7-81.9,43.4-116.9l51.1-119.7h67.2l4.2,119.7c.7,22.4,0,77-.7,116.9h3.5c7.7-35.7,18.2-79.8,27.3-117.6l56.7-234.5h106.4l-138.6,455.7h-121.8l4.2-135.1c.7-29.4,2.1-62.3,4.2-88.2h-2.1c-7.7,27.3-18.2,58.8-28.7,88.2l-46.9,135.1h-124.6l40.6-455.7Z"/>
</svg>